<?xml version="1.0" encoding="UTF-8" standalone="no"?>
<!-- Created with Inkscape (http://www.inkscape.org/) -->

<svg
   width="500"
   height="500"
   viewBox="0 0 132.29166 132.29167"
   version="1.1"
   id="svg1"
   xmlns="http://www.w3.org/2000/svg"
   xmlns:svg="http://www.w3.org/2000/svg">
  <defs
     id="defs1">
    <clipPath
       clipPathUnits="userSpaceOnUse"
       id="clipPath48">
      <path
         id="path49"
         style="fill:#ff0000;fill-opacity:1;fill-rule:nonzero;stroke:none;stroke-width:0.264583"
         d="M 7.220748,5.9536417 V 122.15533 H 123.42244 V 84.809293 c -0.54071,0.572849 -1.18691,0.960025 -1.8712,1.334802 -0.51029,0.279482 -0.99931,0.471998 -1.45986,0.590145 -0.0894,0.115049 -0.17563,0.23242 -0.2558,0.353983 -0.60217,0.831006 -1.17915,1.679115 -1.74201,2.536796 -0.0357,0.202438 -0.0745,0.404159 -0.11576,0.605131 -0.21873,1.034804 -0.74917,1.934356 -1.37976,2.76624 -0.36177,0.441468 -0.75252,0.802648 -1.18339,1.11156 0.56004,0.237098 1.12851,0.454297 1.70016,0.661458 1.07224,0.388573 0.67922,1.472457 -0.39275,1.083138 -0.16949,-0.06155 -0.33859,-0.124145 -0.50746,-0.187584 0.0815,0.04779 0.1636,0.0941 0.24702,0.138493 0.36944,0.197197 0.7285,0.4122 1.02319,0.715201 0.40831,0.4767 0.68534,1.027179 0.86299,1.629876 0.0865,0.330083 0.12685,0.431093 0.16175,0.771011 0.0398,0.387173 -0.009,0.777375 -0.0222,1.164267 -0.0341,0.47064 -0.0514,1.12596 -0.24237,1.55701 -0.0551,0.12428 -0.13612,0.23527 -0.20412,0.35295 -0.1279,0.0831 -0.23749,0.2052 -0.38344,0.2496 -0.61406,0.18666 -1.0947,-0.40986 -1.51154,-0.74104 -0.75737,-0.64626 -1.49914,-1.30981 -2.19469,-2.023132 -0.0576,-0.05714 -0.11501,-0.114385 -0.1726,-0.171564 -0.0935,0.304165 -0.20351,0.603867 -0.32918,0.897616 -0.15437,0.32797 -0.20984,0.47215 -0.40152,0.7767 -0.29054,0.46162 -0.66427,0.86533 -1.05834,1.2392 -0.26527,0.20485 -0.41054,0.35314 -0.74259,0.4563 -0.16605,0.0516 -0.33093,0.0704 -0.49092,0.0579 -0.0158,0.11847 0.009,0.27269 -0.093,0.31471 -0.29804,0.1231 -0.64929,0.14783 -0.96429,0.0791 -0.0432,-0.009 -0.074,-0.0373 -0.0982,-0.0744 -0.0912,0.21005 -0.21579,0.39792 -0.44959,0.46251 -0.15162,0.0419 -0.31451,-1.8e-4 -0.47181,-5.3e-4 -0.0908,-0.0568 -0.18902,-0.10313 -0.27233,-0.17053 -0.003,-0.002 -0.005,-0.004 -0.008,-0.007 8e-4,0.0705 10e-4,0.14084 0.002,0.21136 0.005,0.48602 0.006,0.97228 0.007,1.4583 7.9e-4,0.52635 7.9e-4,1.05235 10e-4,1.57872 -8e-4,0.62112 0.0621,0.74082 -1.13896,0.57309 -0.11991,-0.0168 -0.36797,-1.07149 -0.39429,-1.18339 -0.22428,-0.92635 -0.37423,-1.8672 -0.48369,-2.81326 -0.0823,-0.72467 -0.11764,-1.45372 -0.14056,-2.1823 -0.0194,-0.77616 -0.0223,-1.552177 -0.0263,-2.328538 -0.003,-0.776685 -0.003,-1.553404 -0.004,-2.330091 -0.15968,-0.610843 -0.33079,-1.22547 -0.34674,-1.860351 -0.0109,-0.433163 0.14505,-0.70172 0.34571,-0.805635 v -0.03928 c 0.006,-0.69397 -0.0222,-1.38829 0.032,-2.080493 0.11145,-0.836731 0.26249,-1.677127 0.56638,-2.467033 0.19359,-0.331211 0.39686,-0.572892 0.70745,-0.587044 0.14117,-0.0064 0.30457,0.03408 0.49919,0.134876 0.28094,0.145487 0.47433,0.767475 0.57723,1.051097 0.15682,0.486884 0.29149,0.980205 0.44751,1.467096 0.0441,-0.05246 0.0864,-0.105624 0.12506,-0.160715 0.0974,0.02193 0.19799,0.03334 0.29249,0.06563 0.03,0.01027 0.0764,0.03421 0.12764,0.06356 0.005,-0.05117 0.0102,-0.103703 0.015,-0.158128 0.0144,-0.03471 0.0285,-0.06993 0.0424,-0.104905 -0.36684,-0.433287 -0.62858,-0.956415 -0.79892,-1.528587 -0.0544,-0.182502 -0.0771,-0.372695 -0.11575,-0.559139 -0.0198,-0.218308 -0.048,-0.436348 -0.0594,-0.655257 -0.0351,-0.677232 0.0726,-1.358566 0.11473,-2.032436 0.15799,-1.355326 0.40427,-2.698848 1.18338,-3.854543 0.2324,-0.267663 0.43325,-0.566928 0.69763,-0.803053 0.45384,-0.40532 0.95844,-0.686482 1.49397,-0.891934 0.0209,-0.424976 0.0607,-0.849056 0.1261,-1.270725 0.17131,-1.0664 0.41533,-2.122612 0.82836,-3.124356 0.1286,-0.275256 0.25921,-0.557067 0.40463,-0.831474 -0.32989,-0.621752 -0.15513,-1.371505 0.52401,-1.857767 -0.68403,-0.642323 -0.6292,-1.619014 0.16433,-2.236041 -0.65061,-0.632407 -0.61787,-1.558732 0.0982,-2.161625 -0.64716,-0.860454 -0.18018,-2.177534 1.62574,-2.601907 -0.30437,-0.344461 -0.0617,-0.893448 0.72812,-0.881084 2.25357,0.03528 4.50487,-0.02952 6.75513,-0.128674 V 5.9536417 Z M 107.95827,89.419348 c -0.007,0.0041 -0.0499,0.05509 -0.0677,0.07338 -0.007,0.01633 -0.0132,0.0327 -0.0196,0.04909 0.0255,-0.02638 0.0522,-0.06394 0.0853,-0.116787 l 5.3e-4,-5.29e-4 v -5.29e-4 l 5.2e-4,-5.3e-4 c 2.7e-4,-5.29e-4 8e-4,-0.0016 0.001,-0.0021 l 5.3e-4,-5.29e-4 v -5.3e-4 h 5.3e-4 l 5.3e-4,-5.29e-4 v -5.29e-4 z m -0.34003,0.967383 c -0.093,0.411908 -0.15425,0.832424 -0.21808,1.246952 -0.0311,0.347329 -0.0334,0.69569 -0.0305,1.044382 0.11522,-0.254691 0.27907,-0.475086 0.55139,-0.575675 0.0747,-0.0276 0.15411,-0.03507 0.23461,-0.03721 -0.0312,-0.07861 -0.0615,-0.157501 -0.0904,-0.237193 -0.16366,-0.476184 -0.3015,-0.959504 -0.447,-1.441257 z m 0.90485,2.611726 v 5.29e-4 h -5.3e-4 -5.3e-4 c -0.009,0.006 -0.0355,0.04244 -0.0522,0.06821 0.008,5.29e-4 0.0155,0.0016 0.0233,0.0026 0.01,-0.0173 0.0193,-0.03822 0.0295,-0.06408 l 5.3e-4,-5.29e-4 5.3e-4,-5.29e-4 5.2e-4,-5.29e-4 v -5.3e-4 l 5.3e-4,-5.29e-4 v -5.29e-4 l 5.3e-4,-5.29e-4 5.3e-4,-5.29e-4 5.3e-4,-5.29e-4 v -5.3e-4 -5.29e-4 -5.29e-4 -5.29e-4 h -5.3e-4 v -5.29e-4 z m 6.05441,2.957443 c -0.0612,0.124992 -0.14374,0.244428 -0.20825,0.368454 0.17669,0.321577 0.28409,0.475083 -0.21033,0.920356 -0.022,0.01982 -0.0468,0.03405 -0.0734,0.04393 0.0191,0.180996 0.0213,0.369178 0.009,0.568441 -0.005,0.04069 -0.0112,0.08137 -0.0171,0.121955 0.22697,0.228213 0.45561,0.454945 0.6842,0.681614 0.67515,0.693211 1.3961,1.337199 2.13165,1.96473 0.11732,0.10012 0.23236,0.2003 0.35037,0.29766 0.007,-0.039 0.0131,-0.0782 0.0186,-0.11731 0.0377,-0.26701 0.0568,-0.53581 0.076,-0.8046 0.008,-0.341474 0.0611,-0.686909 0.0207,-1.028356 -0.0236,-0.19916 -0.0691,-0.329822 -0.12351,-0.524516 -0.13705,-0.426815 -0.31412,-0.836943 -0.61753,-1.170987 -0.20776,-0.188513 -0.44736,-0.326102 -0.69453,-0.455269 -0.34831,-0.185301 -0.68075,-0.399849 -1.00924,-0.618051 -0.11264,-0.08182 -0.22486,-0.164727 -0.33642,-0.248047 z m -2.25361,0.04599 c -6e-5,0.03588 -5.3e-4,0.07316 -5.3e-4,0.109035 0.0301,0.03228 0.0603,0.06439 0.0904,0.09664 -7.9e-4,-0.02545 2.7e-4,-0.05139 0.003,-0.07752 -0.0307,-0.04245 -0.0624,-0.08599 -0.093,-0.128156 z m -1.4459,3.952729 c -0.0152,0.0016 -0.0288,0.0021 -0.0408,0.0016 10e-4,0.02349 0.002,0.0473 0.003,0.0708 0.009,-0.004 0.0183,-0.009 0.0274,-0.0129 0.009,-0.007 0.0181,-0.013 0.0274,-0.01964 -0.006,-0.01328 -0.0115,-0.02648 -0.017,-0.03979 z m 6.62595,1.174611 c 0.0256,0.019 0.0519,0.0369 0.0796,0.0527 l 5.3e-4,5.3e-4 h 5.3e-4 c 0.007,10e-4 0.0195,-0.005 0.0233,-0.0103 l 5.3e-4,-5.3e-4 v -5.3e-4 l 5.3e-4,-5.3e-4 v -5.3e-4 -5.3e-4 -5.2e-4 -5.3e-4 l -5.3e-4,-5.3e-4 h -5.3e-4 v -5.3e-4 h -5.3e-4 -5.2e-4 c -0.0437,-0.0173 -0.0763,-0.0299 -0.10283,-0.0382 z m -6.44043,0.29559 c 0.006,0.0109 0.0126,0.0214 0.0191,0.032 0.003,0.002 0.006,0.004 0.008,0.006 0.004,-0.003 0.008,-0.007 0.0119,-0.0103 -0.0101,-0.009 -0.0232,-0.0181 -0.0388,-0.0279 z" />
    </clipPath>
  </defs>
  <g
     id="layer1">
    <path
       style="fill:#ffffff;fill-opacity:0;stroke:#93acd1;stroke-width:6.06499;stroke-linecap:round;stroke-linejoin:round;stroke-dasharray:none;stroke-opacity:1"
       d="M 28.570985,104.72188 28.686191,24.653995 70.275412,66.58883"
       id="path2" />
    <path
       style="fill:#f2f2f2;fill-opacity:0;stroke:#93c3d1;stroke-width:6.06499;stroke-dasharray:none;stroke-opacity:1;stroke-linecap:round;stroke-linejoin:round"
       d="M 76.957329,72.2339 103.2242,98.270362 103.45461,25.806051"
       id="path4" />
    <path
       style="fill:#f2f2f2;fill-opacity:0;stroke:#427ecc;stroke-width:5.96938;stroke-dasharray:none;stroke-opacity:1;stroke-linecap:round;stroke-linejoin:round"
       d="M 32.256889,65.954112 67.97197,65.841076"
       id="path5" />
    <path
       style="fill:#f2f2f2;fill-opacity:0;stroke:#aaffb6;stroke-width:6.06499;stroke-linecap:round;stroke-linejoin:round;stroke-dasharray:none;stroke-opacity:1"
       d="M 38.248253,100.80489 95.390223,39.976339"
       id="path50" />
    <circle
       style="fill:#f2f2f2;stroke-width:6.065;fill-opacity:0;stroke:#a6a6a6;stroke-opacity:1;stroke-dasharray:none;stroke-linecap:round;stroke-linejoin:round;paint-order:normal"
       id="path1"
       cx="65.321564"
       cy="64.054306"
       r="55.068272"
       clip-path="url(#clipPath48)" />
  </g>
</svg>
